# Blender 4.0.2
# www.blender.org
mtllib tolva_metal.mtl
o Cube
v 1.000000 2.736750 -1.000000
v 1.000000 0.736750 -1.000000
v 1.000000 2.736750 1.000000
v 1.000000 0.736750 1.000000
v -1.000000 2.736750 -1.000000
v -1.000000 0.736750 -1.000000
v -1.000000 2.736750 1.000000
v -1.000000 0.736750 1.000000
v 1.000000 2.736750 1.000000
v -1.000000 2.736750 1.000000
v 1.000000 2.736750 -1.000000
v -1.000000 2.736750 -1.000000
v 1.877101 4.017341 1.877101
v -1.877101 4.017341 1.877101
v 1.877101 4.017341 -1.877101
v -1.877101 4.017341 -1.877101
v -1.877101 5.430114 -1.877101
v 1.877101 5.430114 -1.877101
v -1.877101 5.430114 1.877101
v 1.877101 5.430114 1.877101
v 1.877101 4.290282 1.877101
v -1.877101 4.290282 1.877101
v 1.877101 4.290282 -1.877101
v -1.877101 4.290282 -1.877101
v 1.877101 5.430114 1.877101
v -1.877101 5.430114 1.877101
v 1.877101 5.430114 -1.877101
v -1.877101 5.430114 -1.877101
v -1.877101 5.430114 -1.877101
v 1.877101 5.430114 -1.877101
v -1.877101 5.430114 1.877101
v 1.877101 5.430114 1.877101
v 1.877101 5.430114 1.877101
v -1.877101 5.430114 1.877101
v 1.877101 5.430114 -1.877101
v -1.877101 5.430114 -1.877101
v 1.877101 5.430114 1.877101
v -1.877101 5.430114 1.877101
v 1.877101 5.430114 -1.877101
v -1.877101 5.430114 -1.877101
v -1.669704 5.733297 -1.669704
v 1.669704 5.733297 -1.669704
v -1.669704 5.733297 1.669704
v 1.669704 5.733297 1.669704
v -1.669704 4.477274 -1.669704
v 1.669704 4.477274 -1.669704
v -1.669704 4.477274 1.669704
v 1.669704 4.477274 1.669704
v -1.231633 4.302160 -1.231633
v 1.231633 4.302160 -1.231633
v -1.231633 4.302160 1.231633
v 1.231633 4.302160 1.231633
vn -0.0000 1.0000 -0.0000
vn -0.0000 -0.0000 1.0000
vn -1.0000 -0.0000 -0.0000
vn -0.0000 -1.0000 -0.0000
vn 1.0000 -0.0000 -0.0000
vn -0.0000 -0.0000 -1.0000
vn -0.0000 -0.5651 -0.8250
vn 0.8250 -0.5651 -0.0000
vn -0.8250 -0.5651 -0.0000
vn -0.0000 -0.5651 0.8250
vn -0.0000 0.5646 0.8254
vn -0.8254 0.5646 -0.0000
vn 0.8254 0.5646 -0.0000
vn -0.0000 0.5646 -0.8254
vn -0.3712 0.9286 -0.0000
vn -0.0000 0.9286 0.3712
vn -0.0000 0.9286 -0.3712
vn 0.3712 0.9286 -0.0000
vt 0.625000 1.000000
vt 0.625000 0.750000
vt 0.375000 0.750000
vt 0.375000 1.000000
vt 0.375000 0.000000
vt 0.625000 0.000000
vt 0.625000 0.250000
vt 0.375000 0.250000
vt 0.125000 0.500000
vt 0.375000 0.500000
vt 0.125000 0.750000
vt 0.625000 0.500000
vt 0.875000 0.500000
vt 0.875000 0.750000
s 0
usemtl Material.001
f 7/1/1 3/2/1 9/2/1 10/1/1
f 4/3/2 3/2/2 7/1/2 8/4/2
f 8/5/3 7/6/3 5/7/3 6/8/3
f 6/9/4 2/10/4 4/3/4 8/11/4
f 2/10/5 1/12/5 3/2/5 4/3/5
f 6/8/6 5/7/6 1/12/6 2/10/6
f 11/12/7 12/7/7 16/7/7 15/12/7
f 5/7/1 7/6/1 10/6/1 12/7/1
f 3/2/1 1/12/1 11/12/1 9/2/1
f 1/12/1 5/7/1 12/7/1 11/12/1
f 25/2/1 27/12/1 39/12/1 37/2/1
f 9/2/8 11/12/8 15/12/8 13/2/8
f 12/7/9 10/6/9 14/6/9 16/7/9
f 10/1/10 9/2/10 13/2/10 14/1/10
f 14/1/2 13/2/2 21/2/2 22/1/2
f 16/7/3 14/6/3 22/6/3 24/7/3
f 13/2/5 15/12/5 23/12/5 21/2/5
f 15/12/6 16/7/6 24/7/6 23/12/6
f 33/2/1 35/12/1 18/12/1 20/2/1
f 35/12/1 36/7/1 17/7/1 18/12/1
f 34/1/1 33/2/1 20/2/1 19/1/1
f 36/7/1 34/6/1 19/6/1 17/7/1
f 27/12/1 28/13/1 40/13/1 39/12/1
f 26/14/1 25/2/1 37/2/1 38/14/1
f 38/14/11 37/2/11 44/2/11 43/14/11
f 28/13/1 26/14/1 38/14/1 40/13/1
f 35/12/1 36/7/1 29/7/1 30/12/1
f 21/2/5 23/12/5 35/12/5 33/2/5
f 22/1/2 21/2/2 33/2/2 34/1/2
f 23/12/6 24/7/6 36/7/6 35/12/6
f 24/7/3 22/6/3 34/6/3 36/7/3
f 33/2/1 35/12/1 30/12/1 32/2/1
f 36/7/1 34/6/1 31/6/1 29/7/1
f 34/1/1 33/2/1 32/2/1 31/1/1
f 43/14/6 44/2/6 48/2/6 47/14/6
f 40/13/12 38/14/12 43/14/12 41/13/12
f 37/2/13 39/12/13 42/12/13 44/2/13
f 39/12/14 40/13/14 41/13/14 42/12/14
f 48/2/15 46/12/15 50/12/15 52/2/15
f 41/13/5 43/14/5 47/14/5 45/13/5
f 44/2/3 42/12/3 46/12/3 48/2/3
f 42/12/2 41/13/2 45/13/2 46/12/2
f 50/12/1 49/13/1 51/14/1 52/2/1
f 46/12/16 45/13/16 49/13/16 50/12/16
f 47/14/17 48/2/17 52/2/17 51/14/17
f 45/13/18 47/14/18 51/14/18 49/13/18
